HIERARCHY
ROOT root
{
	OFFSET	0	13.1	24.9
	CHANNELS 6  Xposition Yposition Zposition Xrotation Yrotation Zrotation
	JOINT spine_1
	{
		OFFSET	0	9.99999	0
		CHANNELS 3  Xrotation Yrotation Zrotation
		JOINT spine_2
		{
			OFFSET	0	112	-10
			CHANNELS 3  Xrotation Yrotation Zrotation
			JOINT spine_3
			{
				OFFSET	0	206.5	19.3
				CHANNELS 3  Xrotation Yrotation Zrotation
				JOINT spine_4
				{
					OFFSET	0	110.4	14.6
					CHANNELS 3  Xrotation Yrotation Zrotation
					JOINT neck_1
					{
						OFFSET	0	71.8	-50.3
						CHANNELS 3  Xrotation Yrotation Zrotation
						JOINT neck_2
						{
							OFFSET	0	86.2	-25.8
							CHANNELS 3  Xrotation Yrotation Zrotation
							JOINT head_ee
							{
								OFFSET	0	179.8	-8.7
								CHANNELS 3  Xrotation Yrotation Zrotation
								End Site
								{
									OFFSET	1	0	0
								}
							}
						}
					}
					JOINT left_clavicle
					{
						OFFSET	-43.2	22.4	-70.8
						CHANNELS 3  Xrotation Yrotation Zrotation
						JOINT left_shoulder
						{
							OFFSET	-93.9	-5.79999	48.7
							CHANNELS 3  Xrotation Yrotation Zrotation
							JOINT left_elbow
							{
								OFFSET	-291.4	-30.8	15.2
								CHANNELS 3  Xrotation Yrotation Zrotation
								JOINT left_lowarm_twist
								{
									OFFSET	-110.7	-3.89999	13.6
									CHANNELS 3  Xrotation Yrotation Zrotation
									JOINT left_hand
									{
										OFFSET	-110.7	-3.89999	13.6
										CHANNELS 3  Xrotation Yrotation Zrotation
										JOINT left_ee
										{
											OFFSET	-80.8	-5.10001	12.1
											CHANNELS 3  Xrotation Yrotation Zrotation
											End Site
											{
												OFFSET	1	0	0
											}
										}
									}
								}
							}
						}
					}
					JOINT right_clavicle
					{
						OFFSET	43.2	22.4	-70.8
						CHANNELS 3  Xrotation Yrotation Zrotation
						JOINT right_shoulder
						{
							OFFSET	93.9	-5.79999	48.7
							CHANNELS 3  Xrotation Yrotation Zrotation
							JOINT right_elbow
							{
								OFFSET	291.4	-30.8	15.2
								CHANNELS 3  Xrotation Yrotation Zrotation
								JOINT right_lowarm_twist
								{
									OFFSET	110.7	-3.89999	13.6
									CHANNELS 3  Xrotation Yrotation Zrotation
									JOINT right_hand
									{
										OFFSET	110.7	-3.89999	13.6
										CHANNELS 3  Xrotation Yrotation Zrotation
										JOINT right_ee
										{
											OFFSET	80.8	-5.10001	12.1
											CHANNELS 3  Xrotation Yrotation Zrotation
											End Site
											{
												OFFSET	1	0	0
											}
										}
									}
								}
							}
						}
					}
				}
			}
		}
	}
	JOINT left_hip
	{
		OFFSET	-82.8	-127.5	0.300001
		CHANNELS 3  Xrotation Yrotation Zrotation
		JOINT left_knee
		{
			OFFSET	-28.2	-396.7	2.2
			CHANNELS 3  Xrotation Yrotation Zrotation
			JOINT left_ankle
			{
				OFFSET	-11.7	-411.3	35.4
				CHANNELS 3  Xrotation Yrotation Zrotation
				JOINT left_toes
				{
					OFFSET	0	-60	-88.6
					CHANNELS 3  Xrotation Yrotation Zrotation
					JOINT left_foot_ee
					{
						OFFSET	-22.5	-16.5	-42.2
						CHANNELS 3  Xrotation Yrotation Zrotation
						End Site
						{
							OFFSET	1	0	0
						}
					}
				}
			}
		}
	}
	JOINT right_hip
	{
		OFFSET	82.8	-127.5	0.300001
		CHANNELS 3  Xrotation Yrotation Zrotation
		JOINT right_knee
		{
			OFFSET	28.2	-396.7	2.2
			CHANNELS 3  Xrotation Yrotation Zrotation
			JOINT right_ankle
			{
				OFFSET	11.7	-411.3	35.4
				CHANNELS 3  Xrotation Yrotation Zrotation
				JOINT right_toes
				{
					OFFSET	0	-60	-88.6
					CHANNELS 3  Xrotation Yrotation Zrotation
					JOINT right_foot_ee
					{
						OFFSET	22.5	-16.5	-42.2
						CHANNELS 3  Xrotation Yrotation Zrotation
						End Site
						{
							OFFSET	1	0	0
						}
					}
				}
			}
		}
	}
}
MOTION
Frames: 12
Frame Time: 0.02
3466.55 703.735 -538.086 -26.4193 41.1632 22.3648 8.37824 0.348762 -0.155703 8.37819 0.357963 -0.133195 8.37747 0.365918 -0.109462 8.37762 0.344039 -0.165879 -12.9317 9.13707 3.36124 -13.0503 15.2763 5.94088 -0.0 0.0 -0.0 4.45607 11.3565 8.90912 -11.1453 -33.7675 47.995 1.24441 -31.6503 0.352736 47.2513 -0.779131 -5.81696 1.93193 2.50748 14.0077 -0.0 0.0 -0.0 9.70075 11.8907 -19.1403 -15.9473 -21.9082 -67.4297 0.380585 10.6769 -0.0355636 29.567 -0.0795341 3.73451 5.177 5.01726 -34.8816 0.0 0.0 0.0 41.1385 39.6967 -16.5446 -27.3622 0.136028 4.1571 29.2056 -31.299 -4.78645 -14.9435 0.0 0.0 -0.0 0.0 -0.0 57.6849 21.0038 -17.2767 -71.983 3.62295 -9.70252 15.1273 0.912419 2.13232 19.5361 -0.0 -0.0 0.0 0.0 0.0 
3449.31 703.307 -541.146 -26.0843 38.8765 21.5164 8.47493 0.385441 -0.20776 8.47487 0.397881 -0.182812 8.47373 0.408738 -0.157044 8.4739 0.378806 -0.219626 -12.1519 9.17449 2.95239 -12.263 15.5235 5.45783 -0.0 0.0 -0.0 4.34128 11.2522 8.71083 -8.20077 -31.9251 47.6656 1.23124 -31.3786 0.345851 50.2476 -0.986591 -6.13957 1.49078 0.836852 10.3447 -0.0 0.0 -0.0 9.29328 12.102 -18.2421 -17.0602 -20.1187 -68.0565 0.355343 9.98349 -0.031037 29.8216 -0.0718356 3.76612 4.78855 5.52257 -31.5078 0.0 0.0 0.0 41.1247 42.9813 -17.1802 -26.6193 0.158638 4.04533 29.4074 -31.5625 -4.82943 -14.1281 0.0 0.0 -0.0 0.0 -0.0 59.4581 22.6072 -18.3729 -71.5347 3.56542 -9.66394 13.4854 1.80735 1.91858 18.6806 -0.0 -0.0 0.0 0.0 0.0 
3432.82 705.141 -541.592 -25.9094 39.0243 22.0353 8.48589 0.292079 -0.641911 8.48606 0.332333 -0.622026 8.48222 0.371282 -0.599592 8.48182 0.27193 -0.650702 -12.2121 8.59599 3.12181 -12.3008 14.3218 5.45691 -0.0 0.0 -0.0 5.02594 10.7635 9.88872 -5.59757 -31.229 48.8656 1.19743 -30.674 0.328422 48.6655 -0.87494 -5.97057 1.72018 0.846888 11.9083 -0.0 0.0 -0.0 8.9761 12.0419 -17.5525 -17.1649 -21.2536 -66.9607 0.316671 8.91549 -0.0246876 28.2548 -0.116988 3.57108 4.50056 7.97237 -28.0867 0.0 0.0 0.0 39.4399 42.6586 -16.245 -25.6133 0.186941 3.89353 30.9598 -31.2837 -5.0079 -13.1198 0.0 0.0 -0.0 0.0 -0.0 60.1188 21.2081 -17.9568 -68.3174 3.16179 -9.37417 12.2767 -0.169879 1.746 19.2827 -0.0 -0.0 0.0 0.0 0.0 
3411.39 705.789 -549.86 -26.8438 40.0359 23.1762 8.58438 0.00421719 -0.658557 8.58462 0.0461134 -0.656954 8.58367 0.0866968 -0.652839 8.58307 -0.0174928 -0.658338 -12.2231 8.07643 3.17884 -12.2948 13.2989 5.36041 -0.0 0.0 -0.0 5.42251 9.99775 10.5841 -4.45041 -32.254 49.1411 1.26013 -31.9722 0.361018 49.1105 -0.905866 -6.01841 1.66189 0.157349 11.2358 -0.0 0.0 -0.0 8.55896 9.75322 -16.7166 -17.5795 -22.4959 -66.1998 0.291667 8.22156 -0.0209621 27.9882 -0.124138 3.53778 4.33204 9.05237 -26.2848 0.0 0.0 0.0 37.2997 41.5715 -14.572 -24.3773 0.218054 3.70642 32.2472 -31.283 -5.16546 -12.7684 0.0 0.0 -0.0 0.0 -0.0 60.9063 19.5243 -17.5055 -66.2613 2.91265 -9.17739 11.6859 -0.624928 1.66404 19.0098 -0.0 -0.0 0.0 0.0 0.0 
3397.57 703.683 -560.359 -25.9278 37.9771 21.8991 8.52796 0.149044 -0.531082 8.5281 0.182536 -0.520522 8.52622 0.214925 -0.508006 8.52589 0.131998 -0.535573 -11.8542 8.12158 3.21831 -11.9187 13.3214 5.36863 -0.0 0.0 -0.0 5.29956 8.97609 10.3699 -2.82044 -31.6522 45.777 1.28709 -32.5195 0.375404 49.5183 -0.934544 -6.06205 1.53518 -1.80822 9.5776 -0.0 0.0 -0.0 9.06245 9.41959 -17.8067 -17.8944 -22.2163 -65.2641 0.249576 7.04803 -0.0153698 27.5083 -0.136621 3.47775 4.06115 10.4468 -23.5952 0.0 0.0 0.0 35.3357 42.8121 -14.3667 -23.662 0.234215 3.59783 33.7141 -30.8299 -5.308 -12.8179 0.0 0.0 -0.0 0.0 -0.0 64.7281 20.3977 -19.8106 -59.9454 2.1941 -8.51943 10.4696 -1.85141 1.49391 16.8987 -0.0 -0.0 0.0 0.0 0.0 
3379.43 701.178 -569.563 -25.0051 39.3326 21.4492 8.23592 0.0992314 -0.425556 8.23602 0.126109 -0.418379 8.23495 0.154261 -0.408838 8.23473 0.0877572 -0.428069 -11.9267 8.01265 2.93584 -11.9971 13.3039 5.07598 -0.0 0.0 -0.0 5.45917 8.32125 10.656 -1.61928 -31.8931 46.0936 1.31199 -33.0191 0.388883 49.4825 -0.93201 -6.05822 1.48098 -3.30537 8.59318 -0.0 0.0 -0.0 9.14154 8.75968 -17.9875 -18.6891 -22.54 -64.5101 0.202943 5.7409 -0.0101757 27.1491 -0.145633 3.43275 3.78396 11.4836 -21.0778 0.0 0.0 0.0 32.4906 43.5507 -13.8589 -23.4981 0.237726 3.57293 35.2232 -30.7716 -5.47517 -12.5856 0.0 0.0 -0.0 0.0 -0.0 73.2487 22.3329 -23.6197 -53.066 1.49954 -7.71867 9.21194 -2.89433 1.31802 15.3248 -0.0 -0.0 0.0 0.0 0.0 
3367.35 698.609 -571.917 -24.1977 37.5589 20.1246 8.10488 0.309753 -0.235588 8.10485 0.324116 -0.2154 8.1037 0.338451 -0.192092 8.10378 0.303867 -0.243133 -11.1349 7.95715 1.66645 -11.2146 13.9529 3.75078 -0.0 0.0 -0.0 5.28116 8.92034 10.3371 -1.35412 -31.8593 44.3829 1.47564 -36.164 0.481824 49.486 -0.932259 -6.0586 1.63455 -5.13412 8.87757 -0.0 0.0 -0.0 9.32748 9.00648 -18.3849 -19.7935 -19.0147 -64.8698 0.198635 5.61983 -0.00974934 26.5725 -0.159509 3.3604 3.77789 11.3619 -21.093 0.0 0.0 0.0 32.3286 48.4417 -14.5656 -23.6519 0.234434 3.59629 34.8643 -32.1682 -5.53494 -14.353 0.0 0.0 -0.0 0.0 -0.0 78.4486 27.4919 -27.9419 -48.6676 1.10812 -7.16597 8.7055 -3.33626 1.24691 15.1181 -0.0 -0.0 0.0 0.0 0.0 
3355.73 694.413 -581.308 -23.6962 36.2538 19.1771 7.89269 0.254163 0.0628743 7.89265 0.249647 0.07892 7.89305 0.24313 0.0971592 7.89312 0.255423 0.0575418 -11.1804 8.78561 0.908087 -11.2949 16.0216 3.25665 -0.0 0.0 -0.0 5.25536 9.57976 10.291 0.925962 -30.5458 42.799 1.5474 -37.4689 0.524834 49.7034 -0.947662 -6.08179 1.62675 -6.54405 8.22956 -0.0 0.0 -0.0 10.5273 10.1456 -20.99 -23.4482 -14.1653 -64.6398 0.204728 5.79106 -0.0103551 27.7933 -0.129269 3.51341 3.57654 12.5883 -19.0605 0.0 0.0 0.0 31.6576 50.7955 -14.9541 -23.4072 0.239643 3.55911 36.8059 -32.4593 -5.77253 -14.5928 0.0 0.0 -0.0 0.0 -0.0 82.4843 33.2155 -32.4242 -43.068 0.673396 -6.42234 9.73098 -4.57265 1.38679 16.323 -0.0 -0.0 0.0 0.0 0.0 
3338.53 691.879 -589.424 -25.3677 37.4592 21.5539 7.88918 0.36739 -0.169987 7.88912 0.377462 -0.146264 7.88827 0.387253 -0.117924 7.88844 0.363769 -0.177604 -11.3198 7.48726 -0.107234 -11.4136 14.2358 1.93692 -0.0 0.0 -0.0 5.94047 8.70391 11.5178 3.86044 -31.5729 44.8535 1.4816 -36.2741 0.485345 49.4757 -0.931529 -6.0575 1.33771 -7.71417 5.76652 -0.0 0.0 -0.0 9.96374 8.55443 -19.767 -21.7504 -20.4791 -64.3526 0.223727 6.32432 -0.0123601 26.3277 -0.165181 3.32964 3.25042 14.0993 -16.0385 0.0 0.0 0.0 29.675 49.0009 -12.8342 -21.1274 0.280535 3.21169 36.7975 -30.1634 -5.60388 -14.2012 0.0 0.0 -0.0 0.0 -0.0 82.1873 32.0288 -31.3466 -42.2156 0.613705 -6.30562 11.0564 -3.03419 1.5712 15.3902 -0.0 -0.0 0.0 0.0 0.0 
3320.12 687.593 -594.869 -25.9131 38.3872 22.8166 7.89773 0.17799 -0.395605 7.89779 0.202802 -0.383477 7.89635 0.23058 -0.367446 7.8962 0.169656 -0.399249 -12.3126 7.02042 -1.02277 -12.4211 13.9778 1.04836 -0.0 0.0 -0.0 5.90841 8.97329 11.4567 7.09402 -30.9394 48.9218 1.45822 -35.8406 0.471586 49.7882 -0.953686 -6.09081 1.26837 -8.04545 5.155 -0.0 0.0 -0.0 10.1787 8.23169 -20.2353 -21.6826 -22.9856 -62.1888 0.204102 5.77348 -0.010292 26.7437 -0.155465 3.38189 2.88456 14.3563 -13.3822 0.0 0.0 0.0 28.4966 46.2048 -12.4397 -20.655 0.287277 3.13952 37.2271 -29.8931 -5.63043 -12.7742 0.0 0.0 -0.0 0.0 -0.0 80.7519 31.558 -30.8837 -38.8375 0.394469 -5.83486 12.5118 -2.4926 1.76977 15.3239 -0.0 -0.0 0.0 0.0 0.0 
3311.84 685.595 -604.352 -25.2925 36.8886 21.3119 7.63515 0.340146 0.0137407 7.63508 0.338582 0.0353575 7.63539 0.334767 0.0617968 7.63555 0.340325 0.00815037 -11.7854 8.05558 -0.914166 -11.9127 15.8553 1.38474 -0.0 0.0 -0.0 5.52201 10.0691 10.7586 7.35413 -31.2999 46.6367 1.52173 -37.0072 0.509297 50.7468 -1.02279 -6.19227 1.07181 -7.19126 4.18714 -0.0 0.0 -0.0 11.0428 9.17808 -22.1332 -24.3657 -18.3136 -63.1161 0.200863 5.68246 -0.00996874 26.114 -0.170024 3.30277 3.10163 14.1385 -14.9855 0.0 0.0 0.0 30.6319 50.7664 -15.4281 -23.0794 0.246374 3.50926 36.7385 -32.8127 -5.79276 -12.881 0.0 0.0 -0.0 0.0 -0.0 81.949 35.1762 -34.1487 -33.7911 0.11971 -5.11002 9.81126 -2.81406 1.40099 15.3686 -0.0 -0.0 0.0 0.0 0.0 
3299.1 684.089 -610.949 -24.9408 36.4716 21.2594 7.60425 0.410961 -0.0736069 7.60416 0.414812 -0.0473067 7.60397 0.417253 -0.014405 7.6042 0.409741 -0.0801226 -11.4662 7.90028 -1.36387 -11.5807 15.8416 0.862594 -0.0 0.0 -0.0 5.8556 9.52354 11.3548 7.03517 -29.7471 46.6297 1.54319 -37.3935 0.522271 48.7777 -0.882701 -5.98265 1.60863 -11.2664 6.0714 -0.0 0.0 -0.0 11.1532 9.13591 -22.3779 -24.4503 -19.5934 -63.2742 0.201486 5.69998 -0.0100305 27.5151 -0.136448 3.47859 2.8368 14.7229 -12.8807 0.0 0.0 0.0 29.5096 50.4444 -15.3066 -23.3741 0.240335 3.55408 36.7247 -32.4962 -5.76659 -13.0657 0.0 0.0 -0.0 0.0 -0.0 81.1101 34.9196 -33.8501 -31.7031 0.0249254 -4.80368 9.41151 -3.63846 1.34421 16.0444 -0.0 -0.0 0.0 0.0 0.0 
